<mxfile host="app.diagrams.net" modified="2024-04-15T13:13:20.249Z" agent="Mozilla/5.0 (Windows NT 10.0; Win64; x64) AppleWebKit/537.36 (KHTML, like Gecko) Chrome/120.0.0.0 YaBrowser/24.1.0.0 Safari/537.36" etag="iyJocLbwboJvQX35el_A" version="24.2.1" type="device">
  <diagram name="Page-1" id="16e2658f-23c8-b752-8be9-c03fbebb8bbe">
    <mxGraphModel dx="1259" dy="738" grid="1" gridSize="10" guides="1" tooltips="1" connect="1" arrows="1" fold="1" page="1" pageScale="1" pageWidth="1100" pageHeight="850" background="none" math="0" shadow="0">
      <root>
        <mxCell id="0" />
        <mxCell id="1" parent="0" />
        <mxCell id="HA46rBQFtu3Ii_ApIT7_-12" style="edgeStyle=orthogonalEdgeStyle;rounded=0;orthogonalLoop=1;jettySize=auto;html=1;exitX=0;exitY=0.5;exitDx=0;exitDy=0;endArrow=none;endFill=0;fontSize=16;fontStyle=1" edge="1" parent="1" source="HA46rBQFtu3Ii_ApIT7_-1">
          <mxGeometry relative="1" as="geometry">
            <mxPoint x="275" y="460" as="targetPoint" />
          </mxGeometry>
        </mxCell>
        <mxCell id="HA46rBQFtu3Ii_ApIT7_-13" style="edgeStyle=orthogonalEdgeStyle;rounded=0;orthogonalLoop=1;jettySize=auto;html=1;exitX=1;exitY=0.5;exitDx=0;exitDy=0;entryX=1;entryY=0.5;entryDx=0;entryDy=0;endArrow=none;endFill=0;fontSize=16;fontStyle=1" edge="1" parent="1" source="HA46rBQFtu3Ii_ApIT7_-41" target="HA46rBQFtu3Ii_ApIT7_-3">
          <mxGeometry relative="1" as="geometry" />
        </mxCell>
        <mxCell id="HA46rBQFtu3Ii_ApIT7_-1" value="" style="rounded=0;whiteSpace=wrap;html=1;rotation=-90;fillColor=#ffff88;strokeColor=#36393d;fontSize=16;fontStyle=1" vertex="1" parent="1">
          <mxGeometry x="240" y="270" width="70" height="30" as="geometry" />
        </mxCell>
        <mxCell id="HA46rBQFtu3Ii_ApIT7_-3" value="" style="rounded=0;whiteSpace=wrap;html=1;rotation=-90;fillColor=#ffff88;strokeColor=#36393d;fontSize=16;fontStyle=1" vertex="1" parent="1">
          <mxGeometry x="480" y="270" width="70" height="30" as="geometry" />
        </mxCell>
        <mxCell id="HA46rBQFtu3Ii_ApIT7_-6" value="" style="verticalLabelPosition=bottom;shadow=0;dashed=0;align=center;html=1;verticalAlign=top;shape=mxgraph.electrical.transistors.pnp_transistor_1;direction=east;flipH=0;flipV=1;fillColor=#ffcccc;strokeColor=#36393d;fontSize=16;fontStyle=1" vertex="1" parent="1">
          <mxGeometry x="347.95" y="410" width="95" height="100" as="geometry" />
        </mxCell>
        <mxCell id="HA46rBQFtu3Ii_ApIT7_-7" value="" style="verticalLabelPosition=bottom;shadow=0;dashed=0;align=center;html=1;verticalAlign=top;shape=mxgraph.electrical.transistors.pnp_transistor_1;direction=east;flipH=0;flipV=1;fillColor=#ffcccc;strokeColor=#36393d;fontSize=16;fontStyle=1" vertex="1" parent="1">
          <mxGeometry x="450" y="480" width="95" height="100" as="geometry" />
        </mxCell>
        <mxCell id="HA46rBQFtu3Ii_ApIT7_-8" value="" style="pointerEvents=1;verticalLabelPosition=bottom;shadow=0;dashed=0;align=center;html=1;verticalAlign=top;shape=mxgraph.electrical.capacitors.capacitor_1;fontSize=16;fontStyle=1" vertex="1" parent="1">
          <mxGeometry x="530" y="350" width="100" height="60" as="geometry" />
        </mxCell>
        <mxCell id="HA46rBQFtu3Ii_ApIT7_-9" value="" style="pointerEvents=1;verticalLabelPosition=bottom;shadow=0;dashed=0;align=center;html=1;verticalAlign=top;shape=mxgraph.electrical.capacitors.capacitor_1;fontSize=16;fontStyle=1" vertex="1" parent="1">
          <mxGeometry x="170" y="430" width="100" height="60" as="geometry" />
        </mxCell>
        <mxCell id="HA46rBQFtu3Ii_ApIT7_-11" style="edgeStyle=orthogonalEdgeStyle;rounded=0;orthogonalLoop=1;jettySize=auto;html=1;exitX=1;exitY=0.5;exitDx=0;exitDy=0;exitPerimeter=0;entryX=0;entryY=0.5;entryDx=0;entryDy=0;entryPerimeter=0;endArrow=none;endFill=0;fontSize=16;fontStyle=1" edge="1" parent="1" source="HA46rBQFtu3Ii_ApIT7_-9" target="HA46rBQFtu3Ii_ApIT7_-6">
          <mxGeometry relative="1" as="geometry" />
        </mxCell>
        <mxCell id="HA46rBQFtu3Ii_ApIT7_-14" style="edgeStyle=orthogonalEdgeStyle;rounded=0;orthogonalLoop=1;jettySize=auto;html=1;exitX=0;exitY=0.5;exitDx=0;exitDy=0;entryX=0.7;entryY=1;entryDx=0;entryDy=0;entryPerimeter=0;endArrow=none;endFill=0;fontSize=16;fontStyle=1" edge="1" parent="1" source="HA46rBQFtu3Ii_ApIT7_-3" target="HA46rBQFtu3Ii_ApIT7_-7">
          <mxGeometry relative="1" as="geometry" />
        </mxCell>
        <mxCell id="HA46rBQFtu3Ii_ApIT7_-16" style="edgeStyle=orthogonalEdgeStyle;rounded=0;orthogonalLoop=1;jettySize=auto;html=1;exitX=0.7;exitY=0;exitDx=0;exitDy=0;exitPerimeter=0;entryX=0;entryY=0.5;entryDx=0;entryDy=0;entryPerimeter=0;endArrow=none;endFill=0;fontSize=16;fontStyle=1" edge="1" parent="1" source="HA46rBQFtu3Ii_ApIT7_-6" target="HA46rBQFtu3Ii_ApIT7_-7">
          <mxGeometry relative="1" as="geometry" />
        </mxCell>
        <mxCell id="HA46rBQFtu3Ii_ApIT7_-18" style="edgeStyle=orthogonalEdgeStyle;rounded=0;orthogonalLoop=1;jettySize=auto;html=1;exitX=0.7;exitY=1;exitDx=0;exitDy=0;exitPerimeter=0;entryX=0;entryY=0.5;entryDx=0;entryDy=0;entryPerimeter=0;endArrow=none;endFill=0;fontSize=16;fontStyle=1" edge="1" parent="1" source="HA46rBQFtu3Ii_ApIT7_-39" target="HA46rBQFtu3Ii_ApIT7_-8">
          <mxGeometry relative="1" as="geometry">
            <Array as="points">
              <mxPoint x="517" y="380" />
            </Array>
          </mxGeometry>
        </mxCell>
        <mxCell id="HA46rBQFtu3Ii_ApIT7_-20" value="" style="endArrow=none;html=1;rounded=0;entryX=0.7;entryY=0;entryDx=0;entryDy=0;entryPerimeter=0;fontSize=16;fontStyle=1" edge="1" parent="1" target="HA46rBQFtu3Ii_ApIT7_-7">
          <mxGeometry width="50" height="50" relative="1" as="geometry">
            <mxPoint x="516" y="600" as="sourcePoint" />
            <mxPoint x="620" y="520" as="targetPoint" />
          </mxGeometry>
        </mxCell>
        <mxCell id="HA46rBQFtu3Ii_ApIT7_-21" value="" style="endArrow=none;html=1;rounded=0;fontSize=16;fontStyle=1" edge="1" parent="1">
          <mxGeometry width="50" height="50" relative="1" as="geometry">
            <mxPoint x="490" y="600" as="sourcePoint" />
            <mxPoint x="540" y="600" as="targetPoint" />
          </mxGeometry>
        </mxCell>
        <mxCell id="HA46rBQFtu3Ii_ApIT7_-22" value="" style="endArrow=none;html=1;rounded=0;fontSize=16;fontStyle=1" edge="1" parent="1">
          <mxGeometry width="50" height="50" relative="1" as="geometry">
            <mxPoint x="500" y="610" as="sourcePoint" />
            <mxPoint x="530" y="610" as="targetPoint" />
          </mxGeometry>
        </mxCell>
        <mxCell id="HA46rBQFtu3Ii_ApIT7_-23" value="" style="endArrow=none;html=1;rounded=0;fontSize=16;fontStyle=1" edge="1" parent="1">
          <mxGeometry width="50" height="50" relative="1" as="geometry">
            <mxPoint x="510" y="620" as="sourcePoint" />
            <mxPoint x="520" y="620" as="targetPoint" />
          </mxGeometry>
        </mxCell>
        <mxCell id="HA46rBQFtu3Ii_ApIT7_-25" value="R&lt;span style=&quot;font-size: 16px;&quot;&gt;&lt;sub style=&quot;font-size: 16px;&quot;&gt;б&lt;/sub&gt;&lt;/span&gt;" style="text;html=1;align=center;verticalAlign=middle;whiteSpace=wrap;rounded=0;fontSize=16;fontStyle=1" vertex="1" parent="1">
          <mxGeometry x="210" y="270" width="60" height="30" as="geometry" />
        </mxCell>
        <mxCell id="HA46rBQFtu3Ii_ApIT7_-26" value="R&lt;span style=&quot;font-size: 16px;&quot;&gt;к&lt;/span&gt;" style="text;html=1;align=center;verticalAlign=middle;whiteSpace=wrap;rounded=0;fontSize=16;fontStyle=1" vertex="1" parent="1">
          <mxGeometry x="460" y="270" width="60" height="30" as="geometry" />
        </mxCell>
        <mxCell id="HA46rBQFtu3Ii_ApIT7_-27" value="С&lt;sub style=&quot;font-size: 16px;&quot;&gt;вх&lt;/sub&gt;" style="text;html=1;align=center;verticalAlign=middle;whiteSpace=wrap;rounded=0;fontSize=16;fontStyle=1" vertex="1" parent="1">
          <mxGeometry x="190" y="490" width="60" height="30" as="geometry" />
        </mxCell>
        <mxCell id="HA46rBQFtu3Ii_ApIT7_-28" value="С&lt;sub style=&quot;font-size: 16px;&quot;&gt;вых&lt;/sub&gt;" style="text;html=1;align=center;verticalAlign=middle;whiteSpace=wrap;rounded=0;fontSize=16;fontStyle=1" vertex="1" parent="1">
          <mxGeometry x="560" y="410" width="60" height="30" as="geometry" />
        </mxCell>
        <mxCell id="HA46rBQFtu3Ii_ApIT7_-29" value="T&lt;sub style=&quot;font-size: 16px;&quot;&gt;1&lt;/sub&gt;" style="text;html=1;align=center;verticalAlign=middle;whiteSpace=wrap;rounded=0;fontSize=16;fontStyle=1" vertex="1" parent="1">
          <mxGeometry x="330" y="490" width="60" height="30" as="geometry" />
        </mxCell>
        <mxCell id="HA46rBQFtu3Ii_ApIT7_-30" value="T&lt;sub style=&quot;font-size: 16px;&quot;&gt;2&lt;/sub&gt;" style="text;html=1;align=center;verticalAlign=middle;whiteSpace=wrap;rounded=0;fontSize=16;fontStyle=1" vertex="1" parent="1">
          <mxGeometry x="430" y="550" width="60" height="30" as="geometry" />
        </mxCell>
        <mxCell id="HA46rBQFtu3Ii_ApIT7_-33" style="edgeStyle=orthogonalEdgeStyle;rounded=0;orthogonalLoop=1;jettySize=auto;html=1;exitX=0;exitY=0.5;exitDx=0;exitDy=0;endArrow=none;endFill=0;fontSize=16;fontStyle=1" edge="1" parent="1" source="HA46rBQFtu3Ii_ApIT7_-31">
          <mxGeometry relative="1" as="geometry">
            <mxPoint x="650" y="380" as="targetPoint" />
          </mxGeometry>
        </mxCell>
        <mxCell id="HA46rBQFtu3Ii_ApIT7_-31" value="" style="ellipse;whiteSpace=wrap;html=1;aspect=fixed;fillColor=#eeeeee;strokeColor=#36393d;fontSize=16;fontStyle=1" vertex="1" parent="1">
          <mxGeometry x="690" y="365" width="30" height="30" as="geometry" />
        </mxCell>
        <mxCell id="HA46rBQFtu3Ii_ApIT7_-32" value="" style="ellipse;whiteSpace=wrap;html=1;aspect=fixed;fillColor=#eeeeee;strokeColor=#36393d;fontSize=16;fontStyle=1" vertex="1" parent="1">
          <mxGeometry x="140" y="445" width="30" height="30" as="geometry" />
        </mxCell>
        <mxCell id="HA46rBQFtu3Ii_ApIT7_-34" value="" style="endArrow=none;html=1;rounded=0;fontSize=16;fontStyle=1" edge="1" parent="1">
          <mxGeometry width="50" height="50" relative="1" as="geometry">
            <mxPoint x="690" y="400" as="sourcePoint" />
            <mxPoint x="720" y="360" as="targetPoint" />
          </mxGeometry>
        </mxCell>
        <mxCell id="HA46rBQFtu3Ii_ApIT7_-35" value="" style="endArrow=none;html=1;rounded=0;fontSize=16;fontStyle=1" edge="1" parent="1">
          <mxGeometry width="50" height="50" relative="1" as="geometry">
            <mxPoint x="140" y="480" as="sourcePoint" />
            <mxPoint x="170" y="440" as="targetPoint" />
          </mxGeometry>
        </mxCell>
        <mxCell id="HA46rBQFtu3Ii_ApIT7_-37" value="" style="ellipse;whiteSpace=wrap;html=1;aspect=fixed;fillColor=#000000;" vertex="1" parent="1">
          <mxGeometry x="270" y="455" width="10" height="10" as="geometry" />
        </mxCell>
        <mxCell id="HA46rBQFtu3Ii_ApIT7_-40" value="" style="edgeStyle=orthogonalEdgeStyle;rounded=0;orthogonalLoop=1;jettySize=auto;html=1;exitX=0.7;exitY=1;exitDx=0;exitDy=0;exitPerimeter=0;entryX=0;entryY=0.5;entryDx=0;entryDy=0;entryPerimeter=0;endArrow=none;endFill=0;fontSize=16;fontStyle=1" edge="1" parent="1" source="HA46rBQFtu3Ii_ApIT7_-6" target="HA46rBQFtu3Ii_ApIT7_-39">
          <mxGeometry relative="1" as="geometry">
            <mxPoint x="414" y="410" as="sourcePoint" />
            <mxPoint x="570" y="380" as="targetPoint" />
          </mxGeometry>
        </mxCell>
        <mxCell id="HA46rBQFtu3Ii_ApIT7_-39" value="" style="ellipse;whiteSpace=wrap;html=1;aspect=fixed;fillColor=#000000;" vertex="1" parent="1">
          <mxGeometry x="510" y="375" width="10" height="10" as="geometry" />
        </mxCell>
        <mxCell id="HA46rBQFtu3Ii_ApIT7_-42" value="" style="edgeStyle=orthogonalEdgeStyle;rounded=0;orthogonalLoop=1;jettySize=auto;html=1;exitX=1;exitY=0.5;exitDx=0;exitDy=0;entryX=0;entryY=0.5;entryDx=0;entryDy=0;endArrow=none;endFill=0;fontSize=16;fontStyle=1" edge="1" parent="1" source="HA46rBQFtu3Ii_ApIT7_-1" target="HA46rBQFtu3Ii_ApIT7_-41">
          <mxGeometry relative="1" as="geometry">
            <mxPoint x="275" y="250" as="sourcePoint" />
            <mxPoint x="515" y="250" as="targetPoint" />
          </mxGeometry>
        </mxCell>
        <mxCell id="HA46rBQFtu3Ii_ApIT7_-41" value="" style="ellipse;whiteSpace=wrap;html=1;aspect=fixed;fillColor=#000000;" vertex="1" parent="1">
          <mxGeometry x="510" y="225" width="10" height="10" as="geometry" />
        </mxCell>
        <mxCell id="HA46rBQFtu3Ii_ApIT7_-44" value="" style="edgeStyle=orthogonalEdgeStyle;rounded=0;orthogonalLoop=1;jettySize=auto;html=1;exitX=1;exitY=0.5;exitDx=0;exitDy=0;exitPerimeter=0;entryX=1;entryY=0.5;entryDx=0;entryDy=0;endArrow=none;endFill=0;fontSize=16;fontStyle=1" edge="1" parent="1" source="HA46rBQFtu3Ii_ApIT7_-8">
          <mxGeometry relative="1" as="geometry">
            <mxPoint x="630" y="380" as="sourcePoint" />
            <mxPoint x="650" y="380" as="targetPoint" />
          </mxGeometry>
        </mxCell>
      </root>
    </mxGraphModel>
  </diagram>
</mxfile>
